HIERARCHY
ROOT Hips
{
    OFFSET 0.000000 0.000000 0.000000
    CHANNELS 6 Xposition Yposition Zposition Zrotation Xrotation Yrotation
    JOINT Spine
    {
        OFFSET -0.000000 14.517291 0.000000
        CHANNELS 3 Zrotation Xrotation Yrotation
        JOINT Spine1
        {
            OFFSET -0.000000 37.558300 0.000000
            CHANNELS 3 Zrotation Xrotation Yrotation
            JOINT Neck
            {
                OFFSET -0.000000 37.404057 3.400369
                CHANNELS 3 Zrotation Xrotation Yrotation
                JOINT Head
                {
                    OFFSET -0.000000 24.785618 -3.540803
                    CHANNELS 3 Zrotation Xrotation Yrotation
                    End Site
                    {
                        OFFSET -0.000000 35.408028 0.000000
                    }
                }
            }
            JOINT LeftShoulder
            {
                OFFSET 6.992933 33.973492 -0.192664
                CHANNELS 3 Zrotation Xrotation Yrotation
                JOINT LeftArm
                {
                    OFFSET 21.527611 0.000000 0.000000
                    CHANNELS 3 Zrotation Xrotation Yrotation
                    JOINT LeftForeArm
                    {
                        OFFSET 56.353916 0.000000 0.000000
                        CHANNELS 3 Zrotation Xrotation Yrotation
                        JOINT LeftHand
                        {
                            OFFSET 47.774071 0.000000 0.000000
                            CHANNELS 3 Zrotation Xrotation Yrotation
                            End Site
                            {
                                OFFSET 26.556021 0.000000 0.000000
                            }
                        }
                    }
                }
            }
            JOINT RightShoulder
            {
                OFFSET -7.065357 33.973492 -0.192664
                CHANNELS 3 Zrotation Xrotation Yrotation
                JOINT RightArm
                {
                    OFFSET -21.527611 0.000000 0.000000
                    CHANNELS 3 Zrotation Xrotation Yrotation
                    JOINT RightForeArm
                    {
                        OFFSET -56.353916 0.000000 0.000000
                        CHANNELS 3 Zrotation Xrotation Yrotation
                        JOINT RightHand
                        {
                            OFFSET -47.774071 0.000000 0.000000
                            CHANNELS 3 Zrotation Xrotation Yrotation
                            End Site
                            {
                                OFFSET -26.556021 0.000000 0.000000
                            }
                        }
                    }
                }
            }
        }
    }
    JOINT LeftUpLeg
    {
        OFFSET 17.704014 0.000000 0.000000
        CHANNELS 3 Zrotation Xrotation Yrotation
        JOINT LeftLeg
        {
            OFFSET -0.000000 -81.181816 0.000000
            CHANNELS 3 Zrotation Xrotation Yrotation
            JOINT LeftFoot
            {
                OFFSET -0.000000 -62.821102 0.000000
                CHANNELS 3 Zrotation Xrotation Yrotation
                JOINT LeftToeBase
                {
                    OFFSET -0.000000 -11.507608 26.556021
                    CHANNELS 3 Zrotation Xrotation Yrotation
                    End Site
                    {
                        OFFSET -0.000000 0.000000 7.081605
                    }
                }
            }
        }
    }
    JOINT RightUpLeg
    {
        OFFSET -17.704014 0.000000 0.000000
        CHANNELS 3 Zrotation Xrotation Yrotation
        JOINT RightLeg
        {
            OFFSET -0.000000 -81.181816 0.000000
            CHANNELS 3 Zrotation Xrotation Yrotation
            JOINT RightFoot
            {
                OFFSET -0.000000 -62.821102 0.000000
                CHANNELS 3 Zrotation Xrotation Yrotation
                JOINT RightToeBase
                {
                    OFFSET -0.000000 -11.507608 26.556021
                    CHANNELS 3 Zrotation Xrotation Yrotation
                    End Site
                    {
                        OFFSET -0.000000 0.000000 7.081605
                    }
                }
            }
        }
    }
}
MOTION
Frames:    6
Frame Time:    0.008333
-27.364376    152.491409    -31.882048    0.579677    1.934738    20.956968    -2.502638    3.262480    7.177123    -2.231695    -0.901018    2.351811    -4.650618    4.824536    -14.655310    15.971502    -7.350407    -11.524685    0.829179    4.865490    -8.815204    -36.823170    16.125574    -56.034115    -3.338950    -28.692381    -124.206810    -6.077385    -33.628864    -10.213641    0.318647    12.207983    0.086081    40.151707    13.191399    57.277206    -39.311916    -40.159954    38.681194    16.028080    -25.073238    24.909460    -1.455617    -32.900734    -27.919897    -11.355284    23.664564    -23.861313    -9.360296    -0.310726    32.594448    0.000000    0.000000    0.000000    1.456651    8.040019    -23.004797    2.800363    25.731781    -5.374252    1.446386    -30.980341    -9.631427    0.000000    0.000000    0.000000    
-27.351824    152.498291    -31.890779    0.579390    1.941200    20.952551    -2.493916    3.269700    7.174974    -2.244973    -0.905019    2.350943    -4.642957    4.827375    -14.656078    15.961726    -7.355881    -11.527676    0.839386    4.864965    -8.816196    -36.815247    16.134630    -56.047325    -3.330906    -28.712906    -124.202240    -6.082273    -33.634945    -10.208012    0.330774    12.191339    0.085579    40.203571    13.058919    57.243210    -39.508709    -40.254982    39.096542    16.018539    -24.955172    24.958025    -1.464007    -32.899414    -27.939819    -11.348992    23.651024    -23.878031    -9.371420    -0.313503    32.635269    0.000000    0.000000    0.000000    1.445192    8.034289    -22.972187    2.821595    25.726770    -5.412184    1.441561    -30.970057    -9.624004    0.000000    0.000000    0.000000    
-27.341976    152.506287    -31.898064    0.579726    1.947199    20.941736    -2.494019    3.275061    7.169348    -2.240725    -0.906961    2.349037    -4.647768    4.824286    -14.644867    15.956203    -7.353739    -11.516689    0.833465    4.859347    -8.811259    -36.791199    16.143749    -56.053158    -3.312334    -28.743305    -124.188766    -6.079175    -33.633251    -10.206228    0.318757    12.198189    0.089442    40.266193    12.918876    57.238792    -39.700382    -40.332649    39.530704    15.977994    -24.823627    24.945066    -1.466079    -32.892891    -27.941376    -11.340825    23.626652    -23.864622    -9.374097    -0.289933    32.626427    0.000000    0.000000    0.000000    1.436676    8.028649    -22.967697    2.819789    25.718525    -5.407651    1.451554    -30.956200    -9.623673    0.000000    0.000000    0.000000    
-27.333534    152.515106    -31.910902    0.575900    1.959742    20.929123    -2.490984    3.282763    7.173451    -2.245829    -0.923302    2.350002    -4.637629    4.818449    -14.637799    15.939280    -7.342730    -11.515068    0.844072    4.864429    -8.818441    -36.790298    16.138386    -56.061901    -3.316646    -28.745188    -124.187149    -6.069275    -33.643040    -10.193667    0.330017    12.189264    0.091363    40.334221    12.775448    57.202141    -39.851166    -40.479755    40.005833    16.027447    -24.757259    24.908741    -1.466533    -32.897644    -27.941685    -11.328775    23.607307    -23.879801    -9.390056    -0.281488    32.647320    0.000000    0.000000    0.000000    1.428866    8.009237    -22.960028    2.814391    25.720501    -5.396963    1.455665    -30.947088    -9.623680    0.000000    0.000000    0.000000    
-27.320190    152.522232    -31.919008    0.576999    1.963717    20.917280    -2.479383    3.288240    7.169072    -2.261414    -0.925549    2.348471    -4.617550    4.815249    -14.624740    15.911393    -7.335598    -11.510040    0.857747    4.860842    -8.824983    -36.777328    16.150492    -56.059643    -3.290042    -28.793785    -124.170967    -6.102024    -33.643162    -10.193135    0.338443    12.189225    0.101302    40.393177    12.627656    57.182480    -40.007950    -40.603256    40.436424    16.021120    -24.674574    24.964331    -1.468714    -32.889179    -27.952250    -11.324344    23.581619    -23.882971    -9.393489    -0.270084    32.670689    0.000000    0.000000    0.000000    1.417741    8.007661    -22.946005    2.813270    25.723482    -5.419703    1.515239    -30.950895    -9.557025    0.000000    0.000000    0.000000    
-27.308756    152.530807    -31.930777    0.577169    1.971861    20.905680    -2.479005    3.297702    7.169564    -2.260854    -0.941762    2.348243    -4.610050    4.818382    -14.617735    15.897392    -7.322460    -11.508275    0.860921    4.872019    -8.833174    -36.766838    16.142618    -56.061516    -3.300234    -28.799795    -124.169044    -6.119786    -33.662823    -10.204324    0.345518    12.183505    0.105612    40.459671    12.480912    57.156555    -40.167526    -40.678608    40.882671    15.934876    -24.561232    24.873020    -1.475953    -32.887157    -27.953680    -11.309421    23.564041    -23.886095    -9.418576    -0.265356    32.692516    0.000000    0.000000    0.000000    1.406468    7.995162    -22.949772    2.816947    25.711466    -5.409523    1.469889    -30.925688    -9.605314    0.000000    0.000000    0.000000    
